# 3ds Max Wavefront OBJ Exporter v0.97b - (c)2007 guruware
# File Created: 02.11.2017 14:20:08

mtllib 6wrniObj.mtl

#
# object 6wrni
#

v  1.9135 1.2250 -0.0000
v  1.9135 1.2250 6.5033
v  -3.2734 -0.4946 6.5033
v  -3.2734 -0.4946 -0.0000
v  8.3893 9.1737 6.5033
v  8.3893 9.1737 -0.0000
v  9.0819 13.2869 6.5033
v  9.0819 13.2869 -0.0000
v  8.5070 20.7861 6.5033
v  8.5070 20.7861 -0.0000
v  3.9678 27.9926 6.5033
v  3.9678 27.9926 -0.0000
v  -2.1877 30.4271 6.5033
v  -2.1877 30.4271 0.0000
v  -8.8230 30.2193 6.5033
v  -8.8230 30.2193 0.0000
v  -2.6186 39.5322 0.0000
v  -2.6186 39.5322 6.5033
v  2.8180 39.8865 0.0000
v  2.8180 39.8865 6.5033
v  0.1951 44.2918 6.5033
v  0.1951 44.2918 0.0000
v  18.9117 4.7848 -0.0000
v  18.9117 4.7848 6.5033
v  23.7372 4.7514 6.5033
v  23.7372 4.7514 -0.0000
v  7.0019 -0.4079 6.5033
v  11.2074 4.8381 6.5033
v  11.2074 4.8381 -0.0000
v  7.0019 -0.4079 -0.0000
v  19.0083 -0.4079 -0.0000
v  19.0083 -0.4079 6.5033
v  28.6205 8.1805 -0.0000
v  28.6205 8.1805 6.5033
v  33.7524 -0.4079 6.5033
v  33.7524 -0.4079 -0.0000
v  -7.8634 42.5102 0.0000
v  -7.8634 42.5102 6.5033
v  0.1517 55.8244 6.5033
v  0.1517 55.8244 0.0000
v  -15.8059 -0.4946 -0.0000
v  -15.8059 -0.4946 6.5033
v  -33.7524 -0.4946 6.5033
v  -33.7524 -0.4946 -0.0000
v  -10.4704 23.9146 6.5033
v  -13.5053 21.2699 6.5033
v  -13.5053 21.2699 -0.0000
v  -10.4704 23.9146 -0.0000
v  -5.4845 25.0852 6.5033
v  -5.4845 25.0852 -0.0000
v  0.1517 22.8741 6.5033
v  0.1517 22.8741 -0.0000
v  2.8520 19.0991 6.5033
v  2.8520 19.0991 -0.0000
v  3.5885 12.6787 6.5033
v  3.5885 12.6787 -0.0000
v  1.8328 8.4382 -0.0000
v  1.8328 8.4382 6.5033
v  -5.0509 4.5780 6.5033
v  -0.9784 5.6007 6.5033
v  -0.9784 5.6007 -0.0000
v  -5.0509 4.5780 -0.0000
v  -15.3496 4.5780 -0.0000
v  -15.3496 4.5780 6.5033
v  -20.3369 9.9817 -0.0000
v  -20.3369 9.9817 6.5033
v  -23.6072 4.5780 6.5033
v  -23.6072 4.5780 -0.0000
v  7.4765 43.5661 0.0000
v  7.4765 43.5661 6.5033
v  -27.5089 9.8766 -0.0000
v  -27.5089 9.8766 6.5033
v  -20.6677 21.2407 -0.0000
v  -20.6677 21.2406 6.5033
v  -17.3089 26.8201 6.5033
v  -17.3089 26.8201 -0.0000
v  21.7916 8.0191 -0.0000
v  21.7916 8.0191 6.5033
v  18.1784 14.0878 6.5033
v  18.1784 14.0878 -0.0000
v  18.7903 24.6318 -0.0000
v  18.7903 24.6318 6.5033
v  25.2542 13.8142 6.5033
v  25.2542 13.8142 -0.0000
v  12.1338 24.2400 -0.0000
v  12.1338 24.2400 6.5033
v  6.0892 34.3922 6.5033
v  6.0892 34.3922 0.0000
v  12.3264 35.4494 0.0000
v  12.3264 35.4494 6.5033
# 90 vertices

vn 0.3147 -0.9492 -0.0000
vn 0.1594 -0.9872 -0.0000
vn 0.7753 -0.6316 -0.0000
vn 0.9861 -0.1660 -0.0000
vn 0.9971 0.0764 0.0000
vn 0.8461 0.5330 0.0000
vn 0.3678 0.9299 0.0000
vn -0.0313 0.9995 0.0000
vn 0.8468 -0.5319 -0.0000
vn 0.8322 -0.5544 -0.0000
vn -0.8592 -0.5116 -0.0000
vn 0.0069 1.0000 0.0000
vn -0.7802 0.6255 0.0000
vn 0.0000 -1.0000 -0.0000
vn 0.8584 0.5129 -0.0000
vn 0.8584 0.5129 0.0000
vn -0.8567 0.5158 0.0000
vn 0.6570 -0.7539 -0.0000
vn 0.2286 -0.9735 -0.0000
vn -0.3652 -0.9309 -0.0000
vn -0.8133 -0.5818 -0.0000
vn -0.9935 -0.1140 -0.0000
vn -0.8328 0.5536 0.0000
vn -0.9239 0.3825 0.0000
vn -0.2436 0.9699 0.0000
vn 0.0000 1.0000 0.0000
vn 0.8555 -0.5178 -0.0000
vn -0.0000 0.0000 -1.0000
vn 0.0000 0.0000 -1.0000
vn -0.0000 -0.0000 1.0000
vn 0.0000 -0.0000 1.0000
vn -0.8592 -0.5116 0.0000
vn -0.0000 0.0000 1.0000
vn -0.7104 0.7038 0.0000
vn 0.0000 0.0000 1.0000
vn 0.8608 -0.5089 -0.0000
# 36 vertex normals

vt 0.5078 0.1304 0.5000
vt 0.5078 0.1304 0.5919
vt 0.4439 0.1062 0.5919
vt 0.4439 0.1062 0.5000
vt 0.5875 0.2427 0.5919
vt 0.5875 0.2427 0.5000
vt 0.5960 0.3008 0.5919
vt 0.5960 0.3008 0.5000
vt 0.5889 0.4067 0.5919
vt 0.5889 0.4067 0.5000
vt 0.5331 0.5085 0.5919
vt 0.5331 0.5085 0.5000
vt 0.4573 0.5429 0.5919
vt 0.4573 0.5429 0.5000
vt 0.3756 0.5400 0.5919
vt 0.3756 0.5400 0.5000
vt 0.4520 0.6715 0.5000
vt 0.4520 0.6715 0.5919
vt 0.5189 0.6765 0.5000
vt 0.5189 0.6765 0.5919
vt 0.4866 0.7388 0.5919
vt 0.4866 0.7388 0.5000
vt 0.7170 0.1807 0.5000
vt 0.7170 0.1807 0.5919
vt 0.7765 0.1803 0.5919
vt 0.7765 0.1803 0.5000
vt 0.5704 0.1074 0.5919
vt 0.6222 0.1815 0.5919
vt 0.6222 0.1815 0.5000
vt 0.5704 0.1074 0.5000
vt 0.7182 0.1074 0.5000
vt 0.7182 0.1074 0.5919
vt 0.8366 0.2287 0.5000
vt 0.8366 0.2287 0.5919
vt 0.8998 0.1074 0.5919
vt 0.8998 0.1074 0.5000
vt 0.3874 0.7136 0.5000
vt 0.3874 0.7136 0.5919
vt 0.4861 0.9017 0.5919
vt 0.4861 0.9017 0.5000
vt 0.2896 0.1062 0.5000
vt 0.2896 0.1062 0.5919
vt 0.0687 0.1062 0.5919
vt 0.0687 0.1062 0.5000
vt 0.3553 0.4509 0.5919
vt 0.3179 0.4136 0.5919
vt 0.3179 0.4136 0.5000
vt 0.3553 0.4509 0.5000
vt 0.4167 0.4675 0.5919
vt 0.4167 0.4675 0.5000
vt 0.4861 0.4362 0.5919
vt 0.4861 0.4362 0.5000
vt 0.5193 0.3829 0.5919
vt 0.5193 0.3829 0.5000
vt 0.5284 0.2922 0.5919
vt 0.5284 0.2922 0.5000
vt 0.5068 0.2323 0.5000
vt 0.5068 0.2323 0.5919
vt 0.4220 0.1778 0.5919
vt 0.4722 0.1923 0.5919
vt 0.4722 0.1923 0.5000
vt 0.4220 0.1778 0.5000
vt 0.2952 0.1778 0.5000
vt 0.2952 0.1778 0.5919
vt 0.2338 0.2541 0.5000
vt 0.2338 0.2541 0.5919
vt 0.1936 0.1778 0.5919
vt 0.1936 0.1778 0.5000
vt 0.5763 0.7285 0.5000
vt 0.5763 0.7285 0.5919
vt 0.1455 0.2526 0.5000
vt 0.1455 0.2526 0.5919
vt 0.2298 0.4132 0.5000
vt 0.2298 0.4132 0.5919
vt 0.2711 0.4920 0.5919
vt 0.2711 0.4920 0.5000
vt 0.7525 0.2264 0.5000
vt 0.7525 0.2264 0.5919
vt 0.7080 0.3121 0.5919
vt 0.7080 0.3121 0.5000
vt 0.7156 0.4611 0.5000
vt 0.7156 0.4611 0.5919
vt 0.7951 0.3083 0.5919
vt 0.7951 0.3083 0.5000
vt 0.6336 0.4555 0.5000
vt 0.6336 0.4555 0.5919
vt 0.5592 0.5989 0.5919
vt 0.5592 0.5989 0.5000
vt 0.6360 0.6139 0.5000
vt 0.6360 0.6139 0.5919
# 90 texture coords

g 6wrni
usemtl Material__44
s 5
f 1/1/1 2/2/1 3/3/2 4/4/2 
usemtl Material__45
s 2
f 5/5/3 2/2/3 1/1/3 6/6/3 
s 4
f 7/7/4 5/5/4 6/6/4 8/8/4 
usemtl Material__38
s 2
f 9/9/5 7/7/5 8/8/5 10/10/5 
usemtl Material__46
s 4
f 11/11/6 9/9/6 10/10/6 12/12/6 
usemtl Material__39
s 2
f 13/13/7 11/11/7 12/12/7 14/14/7 
s 4
f 15/15/8 13/13/8 14/14/8 16/16/8 
usemtl Material__40
s 2
f 17/17/9 18/18/9 15/15/10 16/16/10 
usemtl Material__41
s 4
f 19/19/11 20/20/11 21/21/11 22/22/11 
usemtl Material__26
s 2
f 23/23/12 24/24/12 25/25/12 26/26/12 
s 4
f 27/27/13 28/28/13 29/29/13 30/30/13 
s 2
f 31/31/14 32/32/14 27/27/14 30/30/14 
s 4
f 33/33/15 34/34/15 35/35/15 36/36/16 
usemtl Material__41
s 2
f 37/37/17 38/38/17 39/39/17 40/40/17 
usemtl Material__43
s 4
f 41/41/14 42/42/14 43/43/14 44/44/14 
usemtl Material__42
s 1
f 45/45/18 46/46/18 47/47/18 48/48/18 
usemtl Material__26
s 4
f 49/49/19 45/45/19 48/48/19 50/50/19 
usemtl Material__39
s 2
f 51/51/20 49/49/20 50/50/20 52/52/20 
usemtl Material__46
s 4
f 53/53/21 51/51/21 52/52/21 54/54/21 
usemtl Material__38
s 2
f 55/55/22 53/53/22 54/54/22 56/56/22 
usemtl Material__45
s 4
f 57/57/23 58/58/23 55/55/24 56/56/24 
usemtl Material__44
s 2
f 59/59/25 60/60/25 61/61/25 62/62/25 
s 4
f 63/63/26 64/64/26 59/59/26 62/62/26 
usemtl Material__43
s 2
f 65/65/27 66/66/27 67/67/27 68/68/27 
usemtl Material__44
s 16
f 61/61/28 1/1/28 4/4/29 62/62/29 
f 3/3/30 59/59/30 64/64/31 42/42/31 
usemtl Material__41
f 69/69/29 19/19/29 22/22/29 40/40/29 
f 21/21/31 20/20/31 70/70/31 39/39/31 
usemtl Material__26
f 31/31/29 23/23/29 26/26/29 36/36/29 
f 25/25/31 24/24/31 32/32/31 35/35/31 
usemtl Material__43
f 71/71/29 65/65/29 68/68/29 44/44/29 
f 67/67/31 66/66/31 72/72/31 43/43/31 
usemtl Material__42
s 2
f 73/73/17 74/74/17 75/75/17 76/76/17 
usemtl Material__40
s 16
f 37/37/29 17/17/29 16/16/29 76/76/29 
f 15/15/30 18/18/31 38/38/30 75/75/30 
usemtl Material__26
s 4
f 77/77/11 78/78/11 79/79/11 80/80/11 
usemtl Material__38
f 81/81/15 82/82/15 83/83/15 84/84/15 
usemtl Material__26
s 16
f 84/84/29 33/33/29 77/77/29 80/80/29 
f 78/78/31 34/34/31 83/83/31 79/79/31 
usemtl Material__46
s 4
f 85/85/11 86/86/11 87/87/11 88/88/32 
s 16
f 89/89/29 81/81/29 85/85/29 88/88/29 
f 86/86/31 82/82/31 90/90/31 87/87/31 
usemtl Material__40
s 4
f 69/69/16 70/70/16 90/90/16 89/89/15 
usemtl Material__39
s 16
f 16/16/29 14/14/28 50/50/28 48/48/29 
f 13/13/31 15/15/30 45/45/30 49/49/31 
f 12/12/28 52/52/28 50/50/28 14/14/28 
f 51/51/31 11/11/31 13/13/31 49/49/31 
usemtl Material__46
f 12/12/28 10/10/29 54/54/29 52/52/28 
f 51/51/31 53/53/30 9/9/33 11/11/31 
usemtl Material__38
f 54/54/29 10/10/29 8/8/29 56/56/29 
f 7/7/30 9/9/33 53/53/30 55/55/30 
usemtl Material__45
s 4
f 61/61/34 60/60/34 58/58/23 57/57/23 
s 16
f 56/56/29 8/8/29 6/6/29 57/57/29 
f 5/5/30 7/7/30 55/55/30 58/58/35 
f 57/57/29 6/6/29 1/1/28 61/61/28 
f 2/2/31 5/5/30 58/58/35 60/60/31 
usemtl Material__44
f 4/4/29 41/41/29 63/63/29 62/62/29 
f 3/3/30 2/2/31 60/60/31 59/59/30 
usemtl Material__46
s 4
f 89/89/15 90/90/16 82/82/15 81/81/15 
usemtl Material__38
f 80/80/11 79/79/11 86/86/11 85/85/11 
s 16
f 81/81/29 84/84/29 80/80/29 85/85/29 
f 79/79/31 83/83/31 82/82/31 86/86/31 
usemtl Material__26
s 4
f 84/84/15 83/83/15 34/34/15 33/33/15 
f 26/26/11 25/25/11 78/78/11 77/77/11 
s 16
f 33/33/29 36/36/29 26/26/29 77/77/29 
f 25/25/31 35/35/31 34/34/31 78/78/31 
s 2
f 29/29/12 28/28/12 24/24/12 23/23/12 
f 36/36/14 35/35/14 32/32/14 31/31/14 
s 16
f 30/30/29 29/29/29 23/23/29 31/31/29 
f 24/24/31 28/28/31 27/27/31 32/32/31 
usemtl Material__44
s 4
f 4/4/2 3/3/2 42/42/14 41/41/14 
usemtl Material__43
f 68/68/26 67/67/26 64/64/26 63/63/26 
s 16
f 67/67/31 43/43/31 42/42/31 64/64/31 
f 41/41/29 44/44/29 68/68/29 63/63/29 
usemtl Material__42
s 2
f 71/71/17 72/72/17 74/74/17 73/73/17 
s 16
f 76/76/29 16/16/29 48/48/29 47/47/29 
f 73/73/29 76/76/29 47/47/29 
f 45/45/30 15/15/30 75/75/30 74/74/31 
f 46/46/31 45/45/30 74/74/31 
s 2
f 47/47/27 46/46/27 66/66/27 65/65/27 
s 16
f 73/73/29 47/47/29 65/65/29 71/71/29 
f 66/66/31 46/46/31 74/74/31 72/72/31 
usemtl Material__43
s 2
f 44/44/17 43/43/17 72/72/17 71/71/17 
usemtl Material__40
s 4
f 88/88/32 87/87/11 20/20/11 19/19/11 
s 16
f 89/89/29 88/88/29 19/19/29 69/69/29 
f 20/20/31 87/87/31 90/90/31 70/70/31 
usemtl Material__41
s 4
f 40/40/16 39/39/16 70/70/16 69/69/16 
s 2
f 22/22/36 21/21/36 18/18/9 17/17/9 
usemtl Material__40
f 76/76/17 75/75/17 38/38/17 37/37/17 
usemtl Material__41
s 16
f 37/37/29 40/40/29 22/22/29 17/17/29 
f 21/21/31 39/39/31 38/38/30 18/18/31 
# 89 polygons - 2 triangles

